<svg width="789" height="91" viewBox="0 0 789 91" fill="none" xmlns="http://www.w3.org/2000/svg">
<path d="M269.236 74.4391C265.382 74.4391 261.869 73.7073 258.698 72.2436C255.575 70.7312 252.868 68.7309 250.574 66.2428C248.281 63.7058 246.525 60.8761 245.305 57.7537C244.086 54.5825 243.476 51.3138 243.476 47.9474C243.476 44.5323 244.11 41.2635 245.379 38.1411C246.696 34.9699 248.501 32.1646 250.794 29.7253C253.136 27.2371 255.892 25.2856 259.064 23.8707C262.235 22.4559 265.699 21.7485 269.455 21.7485C273.31 21.7485 276.798 22.5047 279.92 24.0171C283.091 25.4807 285.799 27.481 288.043 30.018C290.336 32.5549 292.093 35.409 293.312 38.5802C294.532 41.7026 295.142 44.8982 295.142 48.167C295.142 51.5821 294.483 54.8753 293.166 58.0465C291.898 61.1689 290.092 63.9741 287.751 66.4623C285.458 68.9017 282.726 70.8532 279.554 72.3168C276.432 73.7317 272.992 74.4391 269.236 74.4391ZM255.697 48.0938C255.697 50.7771 256.209 53.3141 257.234 55.7047C258.259 58.0465 259.795 59.9736 261.844 61.486C263.894 62.9984 266.382 63.7546 269.309 63.7546C272.334 63.7546 274.846 62.974 276.847 61.4128C278.896 59.8516 280.408 57.8757 281.384 55.4851C282.408 53.0457 282.921 50.5332 282.921 47.9474C282.921 45.2641 282.384 42.7515 281.311 40.4097C280.286 38.0191 278.749 36.092 276.7 34.6284C274.7 33.1648 272.236 32.433 269.309 32.433C266.284 32.433 263.747 33.2136 261.698 34.7748C259.698 36.2872 258.185 38.2387 257.161 40.6293C256.185 43.0199 255.697 45.508 255.697 48.0938ZM306.468 74V22.0412H341.741V32.5793H318.47V43.7761H337.643V53.5092H318.47V74H306.468Z" fill="#FFAE3A"/>
<g style="mix-blend-mode:screen">
<path d="M269.236 74.4391C265.382 74.4391 261.869 73.7073 258.698 72.2436C255.575 70.7312 252.868 68.7309 250.574 66.2428C248.281 63.7058 246.525 60.8761 245.305 57.7537C244.086 54.5825 243.476 51.3138 243.476 47.9474C243.476 44.5323 244.11 41.2635 245.379 38.1411C246.696 34.9699 248.501 32.1646 250.794 29.7253C253.136 27.2371 255.892 25.2856 259.064 23.8707C262.235 22.4559 265.699 21.7485 269.455 21.7485C273.31 21.7485 276.798 22.5047 279.92 24.0171C283.091 25.4807 285.799 27.481 288.043 30.018C290.336 32.5549 292.093 35.409 293.312 38.5802C294.532 41.7026 295.142 44.8982 295.142 48.167C295.142 51.5821 294.483 54.8753 293.166 58.0465C291.898 61.1689 290.092 63.9741 287.751 66.4623C285.458 68.9017 282.726 70.8532 279.554 72.3168C276.432 73.7317 272.992 74.4391 269.236 74.4391ZM255.697 48.0938C255.697 50.7771 256.209 53.3141 257.234 55.7047C258.259 58.0465 259.795 59.9736 261.844 61.486C263.894 62.9984 266.382 63.7546 269.309 63.7546C272.334 63.7546 274.846 62.974 276.847 61.4128C278.896 59.8516 280.408 57.8757 281.384 55.4851C282.408 53.0457 282.921 50.5332 282.921 47.9474C282.921 45.2641 282.384 42.7515 281.311 40.4097C280.286 38.0191 278.749 36.092 276.7 34.6284C274.7 33.1648 272.236 32.433 269.309 32.433C266.284 32.433 263.747 33.2136 261.698 34.7748C259.698 36.2872 258.185 38.2387 257.161 40.6293C256.185 43.0199 255.697 45.508 255.697 48.0938ZM306.468 74V22.0412H341.741V32.5793H318.47V43.7761H337.643V53.5092H318.47V74H306.468Z" fill="url(#paint0_linear_1267_3963)"/>
<path d="M269.236 74.4391C265.382 74.4391 261.869 73.7073 258.698 72.2436C255.575 70.7312 252.868 68.7309 250.574 66.2428C248.281 63.7058 246.525 60.8761 245.305 57.7537C244.086 54.5825 243.476 51.3138 243.476 47.9474C243.476 44.5323 244.11 41.2635 245.379 38.1411C246.696 34.9699 248.501 32.1646 250.794 29.7253C253.136 27.2371 255.892 25.2856 259.064 23.8707C262.235 22.4559 265.699 21.7485 269.455 21.7485C273.31 21.7485 276.798 22.5047 279.92 24.0171C283.091 25.4807 285.799 27.481 288.043 30.018C290.336 32.5549 292.093 35.409 293.312 38.5802C294.532 41.7026 295.142 44.8982 295.142 48.167C295.142 51.5821 294.483 54.8753 293.166 58.0465C291.898 61.1689 290.092 63.9741 287.751 66.4623C285.458 68.9017 282.726 70.8532 279.554 72.3168C276.432 73.7317 272.992 74.4391 269.236 74.4391ZM255.697 48.0938C255.697 50.7771 256.209 53.3141 257.234 55.7047C258.259 58.0465 259.795 59.9736 261.844 61.486C263.894 62.9984 266.382 63.7546 269.309 63.7546C272.334 63.7546 274.846 62.974 276.847 61.4128C278.896 59.8516 280.408 57.8757 281.384 55.4851C282.408 53.0457 282.921 50.5332 282.921 47.9474C282.921 45.2641 282.384 42.7515 281.311 40.4097C280.286 38.0191 278.749 36.092 276.7 34.6284C274.7 33.1648 272.236 32.433 269.309 32.433C266.284 32.433 263.747 33.2136 261.698 34.7748C259.698 36.2872 258.185 38.2387 257.161 40.6293C256.185 43.0199 255.697 45.508 255.697 48.0938ZM306.468 74V22.0412H341.741V32.5793H318.47V43.7761H337.643V53.5092H318.47V74H306.468Z" fill="url(#paint1_radial_1267_3963)" style="mix-blend-mode:overlay"/>
</g>
<g style="mix-blend-mode:screen">
<path d="M0 74.1087V19.2041H35.6804V30.3397H12.1402V42.1712H31.535V52.4562H12.1402V74.1087H0Z" fill="url(#paint2_linear_1267_3963)"/>
<path d="M0 74.1087V19.2041H35.6804V30.3397H12.1402V42.1712H31.535V52.4562H12.1402V74.1087H0Z" fill="url(#paint3_radial_1267_3963)" style="mix-blend-mode:overlay"/>
<path d="M90.9285 62.9731V74.1087H53.9896V19.2041H90.2623V30.3397H66.1299V41.0113H86.8571V51.2962H66.1299V62.9731H90.9285Z" fill="url(#paint4_linear_1267_3963)"/>
<path d="M90.9285 62.9731V74.1087H53.9896V19.2041H90.2623V30.3397H66.1299V41.0113H86.8571V51.2962H66.1299V62.9731H90.9285Z" fill="url(#paint5_radial_1267_3963)" style="mix-blend-mode:overlay"/>
<path d="M150.196 30.3397H134.206V74.1087H122.066V30.3397H106.003V19.2041H150.196V30.3397Z" fill="url(#paint6_linear_1267_3963)"/>
<path d="M150.196 30.3397H134.206V74.1087H122.066V30.3397H106.003V19.2041H150.196V30.3397Z" fill="url(#paint7_radial_1267_3963)" style="mix-blend-mode:overlay"/>
<path d="M204.908 62.9731V74.1087H167.969V19.2041H204.242V30.3397H180.109V41.0113H200.837V51.2962H180.109V62.9731H204.908Z" fill="url(#paint8_linear_1267_3963)"/>
<path d="M204.908 62.9731V74.1087H167.969V19.2041H204.242V30.3397H180.109V41.0113H200.837V51.2962H180.109V62.9731H204.908Z" fill="url(#paint9_radial_1267_3963)" style="mix-blend-mode:overlay"/>
</g>
<g style="mix-blend-mode:hard-light">
<path d="M0 74.1087V19.2041H35.6804V30.3397H12.1402V42.1712H31.535V52.4562H12.1402V74.1087H0Z" fill="#FFD38C"/>
<path d="M90.9285 62.9731V74.1087H53.9896V19.2041H90.2623V30.3397H66.1299V41.0113H86.8571V51.2962H66.1299V62.9731H90.9285Z" fill="#FFD38C"/>
<path d="M150.196 30.3397H134.206V74.1087H122.066V30.3397H106.003V19.2041H150.196V30.3397Z" fill="#FFD38C"/>
<path d="M204.908 62.9731V74.1087H167.969V19.2041H204.242V30.3397H180.109V41.0113H200.837V51.2962H180.109V62.9731H204.908Z" fill="#FFD38C"/>
</g>
<g style="mix-blend-mode:screen">
<path d="M65.9062 0H74.2648L81.3283 10.8966L76.1484 12.8884L65.9062 0Z" fill="#FFD38C"/>
<path d="M65.9062 0H74.2648L81.3283 10.8966L76.1484 12.8884L65.9062 0Z" fill="#FFD38C"/>
</g>
<path d="M368 69.9917V20.5828H397.787V30.6037H378.135V41.251H394.326V50.5065H378.135V69.9917H368Z" fill="url(#paint10_linear_1267_3963)"/>
<path d="M368 69.9917V20.5828H397.787V30.6037H378.135V41.251H394.326V50.5065H378.135V69.9917H368Z" fill="url(#paint11_radial_1267_3963)" style="mix-blend-mode:overlay"/>
<path d="M479.492 69.9917V20.5828H499.268C501.328 20.5828 503.223 21.0699 504.953 22.0442C506.725 22.972 508.249 24.2478 509.526 25.8716C510.804 27.449 511.792 29.2351 512.493 31.23C513.234 33.225 513.605 35.2431 513.605 37.2844C513.605 40.3463 512.946 43.1763 511.628 45.7744C510.35 48.326 508.62 50.2745 506.436 51.6199L516.077 69.9917H504.892L496.487 54.0556H489.627V69.9917H479.492ZM489.627 44.1042H498.897C500.092 44.1042 501.122 43.4779 501.987 42.2253C502.852 40.9263 503.285 39.2793 503.285 37.2844C503.285 35.2895 502.79 33.6889 501.802 32.4827C500.813 31.23 499.742 30.6037 498.588 30.6037H489.627V44.1042Z" fill="url(#paint12_linear_1267_3963)"/>
<path d="M479.492 69.9917V20.5828H499.268C501.328 20.5828 503.223 21.0699 504.953 22.0442C506.725 22.972 508.249 24.2478 509.526 25.8716C510.804 27.449 511.792 29.2351 512.493 31.23C513.234 33.225 513.605 35.2431 513.605 37.2844C513.605 40.3463 512.946 43.1763 511.628 45.7744C510.35 48.326 508.62 50.2745 506.436 51.6199L516.077 69.9917H504.892L496.487 54.0556H489.627V69.9917H479.492ZM489.627 44.1042H498.897C500.092 44.1042 501.122 43.4779 501.987 42.2253C502.852 40.9263 503.285 39.2793 503.285 37.2844C503.285 35.2895 502.79 33.6889 501.802 32.4827C500.813 31.23 499.742 30.6037 498.588 30.6037H489.627V44.1042Z" fill="url(#paint13_radial_1267_3963)" style="mix-blend-mode:overlay"/>
<path d="M562.434 30.6037H549.085V69.9917H538.95V30.6037H525.54V20.5828H562.434V30.6037Z" fill="url(#paint14_linear_1267_3963)"/>
<path d="M562.434 30.6037H549.085V69.9917H538.95V30.6037H525.54V20.5828H562.434V30.6037Z" fill="url(#paint15_radial_1267_3963)" style="mix-blend-mode:overlay"/>
<path d="M576.035 69.9917V20.5828H586.17V69.9917H576.035Z" fill="url(#paint16_linear_1267_3963)"/>
<path d="M576.035 69.9917V20.5828H586.17V69.9917H576.035Z" fill="url(#paint17_radial_1267_3963)" style="mix-blend-mode:overlay"/>
<path d="M636.647 30.6037H623.299V69.9917H613.164V30.6037H599.754V20.5828H636.647V30.6037Z" fill="url(#paint18_linear_1267_3963)"/>
<path d="M636.647 30.6037H623.299V69.9917H613.164V30.6037H599.754V20.5828H636.647V30.6037Z" fill="url(#paint19_radial_1267_3963)" style="mix-blend-mode:overlay"/>
<path d="M669.097 70.4092C665.595 70.4092 662.608 69.7597 660.136 68.4607C657.664 67.1153 655.645 65.306 654.08 63.0327C652.556 60.713 651.423 58.0918 650.681 55.169C649.981 52.1999 649.63 49.0915 649.63 45.844V20.5828H659.765V45.844C659.765 48.3492 660.054 50.6921 660.63 52.8726C661.248 55.053 662.237 56.8392 663.597 58.231C664.956 59.5764 666.79 60.2491 669.097 60.2491C671.445 60.2491 673.299 59.5532 674.659 58.1614C676.018 56.7696 676.986 54.9835 677.563 52.803C678.14 50.6225 678.428 48.3028 678.428 45.844V20.5828H688.563V45.844C688.563 50.3905 687.883 54.5195 686.524 58.231C685.164 61.9425 683.043 64.9116 680.159 67.1385C677.316 69.319 673.629 70.4092 669.097 70.4092Z" fill="url(#paint20_linear_1267_3963)"/>
<path d="M669.097 70.4092C665.595 70.4092 662.608 69.7597 660.136 68.4607C657.664 67.1153 655.645 65.306 654.08 63.0327C652.556 60.713 651.423 58.0918 650.681 55.169C649.981 52.1999 649.63 49.0915 649.63 45.844V20.5828H659.765V45.844C659.765 48.3492 660.054 50.6921 660.63 52.8726C661.248 55.053 662.237 56.8392 663.597 58.231C664.956 59.5764 666.79 60.2491 669.097 60.2491C671.445 60.2491 673.299 59.5532 674.659 58.1614C676.018 56.7696 676.986 54.9835 677.563 52.803C678.14 50.6225 678.428 48.3028 678.428 45.844V20.5828H688.563V45.844C688.563 50.3905 687.883 54.5195 686.524 58.231C685.164 61.9425 683.043 64.9116 680.159 67.1385C677.316 69.319 673.629 70.4092 669.097 70.4092Z" fill="url(#paint21_radial_1267_3963)" style="mix-blend-mode:overlay"/>
<path d="M705.068 69.9917V20.5828H721.444C726.264 20.5828 730.281 21.6962 733.495 23.9231C736.75 26.1036 739.201 29.0728 740.849 32.8306C742.497 36.5421 743.321 40.6711 743.321 45.2177C743.321 50.2281 742.414 54.5891 740.602 58.3006C738.789 62.0121 736.235 64.8884 732.939 66.9297C729.684 68.9711 725.852 69.9917 721.444 69.9917H705.068ZM733 45.2177C733 40.8567 731.991 37.3308 729.972 34.64C727.954 31.9491 725.111 30.6037 721.444 30.6037H715.203V59.9707H721.444C723.916 59.9707 726.017 59.3444 727.748 58.0918C729.478 56.7928 730.776 55.0298 731.641 52.803C732.547 50.5761 733 48.0476 733 45.2177Z" fill="url(#paint22_linear_1267_3963)"/>
<path d="M705.068 69.9917V20.5828H721.444C726.264 20.5828 730.281 21.6962 733.495 23.9231C736.75 26.1036 739.201 29.0728 740.849 32.8306C742.497 36.5421 743.321 40.6711 743.321 45.2177C743.321 50.2281 742.414 54.5891 740.602 58.3006C738.789 62.0121 736.235 64.8884 732.939 66.9297C729.684 68.9711 725.852 69.9917 721.444 69.9917H705.068ZM733 45.2177C733 40.8567 731.991 37.3308 729.972 34.64C727.954 31.9491 725.111 30.6037 721.444 30.6037H715.203V59.9707H721.444C723.916 59.9707 726.017 59.3444 727.748 58.0918C729.478 56.7928 730.776 55.0298 731.641 52.803C732.547 50.5761 733 48.0476 733 45.2177Z" fill="url(#paint23_radial_1267_3963)" style="mix-blend-mode:overlay"/>
<path d="M788.793 59.9707V69.9917H757.956V20.5828H788.237V30.6037H768.091V40.2072H785.394V49.4626H768.091V59.9707H788.793Z" fill="url(#paint24_linear_1267_3963)"/>
<path d="M788.793 59.9707V69.9917H757.956V20.5828H788.237V30.6037H768.091V40.2072H785.394V49.4626H768.091V59.9707H788.793Z" fill="url(#paint25_radial_1267_3963)" style="mix-blend-mode:overlay"/>
<path fill-rule="evenodd" clip-rule="evenodd" d="M437.183 12C435.484 12 434.106 13.6391 434.106 15.6611V19.3672C432.661 19.583 431.254 19.949 429.899 20.4514C429.593 19.4728 429.179 18.55 428.646 17.7198C427.25 15.542 425.14 14.182 422.567 14.182C421.116 14.182 419.94 15.5818 419.94 17.3086C419.94 19.0354 421.116 20.4352 422.567 20.4352C423.454 20.4352 424.037 20.8401 424.468 21.5126C424.703 21.88 424.912 22.3643 425.065 22.9558C417.691 27.969 412.721 37.4163 412.721 48.2448C412.721 59.0922 417.708 68.5536 425.103 73.56C424.949 74.2231 424.724 74.7607 424.468 75.1601C424.037 75.8325 423.454 76.2375 422.567 76.2375C421.116 76.2375 419.94 77.6373 419.94 79.3641C419.94 81.0909 421.116 82.4907 422.567 82.4907C425.14 82.4907 427.25 81.1307 428.646 78.9529C429.208 78.0764 429.639 77.0965 429.949 76.0568C431.289 76.5497 432.678 76.9093 434.106 77.1225V80.8285C434.106 82.8505 435.484 84.4896 437.183 84.4896C438.882 84.4896 440.26 82.8505 440.26 80.8285V77.1225C441.688 76.9093 443.077 76.5497 444.417 76.0568C444.727 77.0965 445.158 78.0764 445.72 78.9529C447.116 81.1307 449.226 82.4907 451.799 82.4907C453.25 82.4907 454.426 81.0909 454.426 79.3641C454.426 77.6373 453.25 76.2375 451.799 76.2375C450.912 76.2375 450.329 75.8325 449.898 75.1601C449.642 74.7607 449.417 74.2231 449.263 73.56C456.658 68.5536 461.645 59.0922 461.645 48.2448C461.645 37.4163 456.675 27.969 449.301 22.9558C449.454 22.3643 449.663 21.88 449.898 21.5126C450.329 20.8401 450.912 20.4352 451.799 20.4352C453.25 20.4352 454.426 19.0354 454.426 17.3086C454.426 15.5818 453.25 14.182 451.799 14.182C449.226 14.182 447.116 15.542 445.72 17.7198C445.187 18.55 444.773 19.4728 444.467 20.4514C443.112 19.949 441.705 19.583 440.26 19.3672V15.6611C440.26 13.6391 438.882 12 437.183 12ZM434.106 26.7676C425.46 28.5086 418.875 37.4618 418.875 48.2448C418.875 59.0279 425.46 67.981 434.106 69.722V26.7676ZM440.26 26.7676C448.906 28.5086 455.491 37.4618 455.491 48.2448C455.491 59.0279 448.906 67.981 440.26 69.722V26.7676Z" fill="url(#paint26_linear_1267_3963)"/>
<path fill-rule="evenodd" clip-rule="evenodd" d="M437.183 12C435.484 12 434.106 13.6391 434.106 15.6611V19.3672C432.661 19.583 431.254 19.949 429.899 20.4514C429.593 19.4728 429.179 18.55 428.646 17.7198C427.25 15.542 425.14 14.182 422.567 14.182C421.116 14.182 419.94 15.5818 419.94 17.3086C419.94 19.0354 421.116 20.4352 422.567 20.4352C423.454 20.4352 424.037 20.8401 424.468 21.5126C424.703 21.88 424.912 22.3643 425.065 22.9558C417.691 27.969 412.721 37.4163 412.721 48.2448C412.721 59.0922 417.708 68.5536 425.103 73.56C424.949 74.2231 424.724 74.7607 424.468 75.1601C424.037 75.8325 423.454 76.2375 422.567 76.2375C421.116 76.2375 419.94 77.6373 419.94 79.3641C419.94 81.0909 421.116 82.4907 422.567 82.4907C425.14 82.4907 427.25 81.1307 428.646 78.9529C429.208 78.0764 429.639 77.0965 429.949 76.0568C431.289 76.5497 432.678 76.9093 434.106 77.1225V80.8285C434.106 82.8505 435.484 84.4896 437.183 84.4896C438.882 84.4896 440.26 82.8505 440.26 80.8285V77.1225C441.688 76.9093 443.077 76.5497 444.417 76.0568C444.727 77.0965 445.158 78.0764 445.72 78.9529C447.116 81.1307 449.226 82.4907 451.799 82.4907C453.25 82.4907 454.426 81.0909 454.426 79.3641C454.426 77.6373 453.25 76.2375 451.799 76.2375C450.912 76.2375 450.329 75.8325 449.898 75.1601C449.642 74.7607 449.417 74.2231 449.263 73.56C456.658 68.5536 461.645 59.0922 461.645 48.2448C461.645 37.4163 456.675 27.969 449.301 22.9558C449.454 22.3643 449.663 21.88 449.898 21.5126C450.329 20.8401 450.912 20.4352 451.799 20.4352C453.25 20.4352 454.426 19.0354 454.426 17.3086C454.426 15.5818 453.25 14.182 451.799 14.182C449.226 14.182 447.116 15.542 445.72 17.7198C445.187 18.55 444.773 19.4728 444.467 20.4514C443.112 19.949 441.705 19.583 440.26 19.3672V15.6611C440.26 13.6391 438.882 12 437.183 12ZM434.106 26.7676C425.46 28.5086 418.875 37.4618 418.875 48.2448C418.875 59.0279 425.46 67.981 434.106 69.722V26.7676ZM440.26 26.7676C448.906 28.5086 455.491 37.4618 455.491 48.2448C455.491 59.0279 448.906 67.981 440.26 69.722V26.7676Z" fill="url(#paint27_radial_1267_3963)" style="mix-blend-mode:overlay"/>
<g style="mix-blend-mode:hard-light">
<path d="M368 69.9917V20.5828H397.787V30.6037H378.135V41.251H394.326V50.5065H378.135V69.9917H368Z" fill="#FFD38C"/>
<path d="M479.492 69.9917V20.5828H499.268C501.328 20.5828 503.223 21.0699 504.953 22.0442C506.725 22.972 508.249 24.2478 509.526 25.8716C510.804 27.449 511.792 29.2351 512.493 31.23C513.234 33.225 513.605 35.2431 513.605 37.2844C513.605 40.3463 512.946 43.1763 511.628 45.7744C510.35 48.326 508.62 50.2745 506.436 51.6199L516.077 69.9917H504.892L496.487 54.0556H489.627V69.9917H479.492ZM489.627 44.1042H498.897C500.092 44.1042 501.122 43.4779 501.987 42.2253C502.852 40.9263 503.285 39.2793 503.285 37.2844C503.285 35.2895 502.79 33.6889 501.802 32.4827C500.813 31.23 499.742 30.6037 498.588 30.6037H489.627V44.1042Z" fill="#FFD38C"/>
<path d="M562.434 30.6037H549.085V69.9917H538.951V30.6037H525.54V20.5828H562.434V30.6037Z" fill="#FFD38C"/>
<path d="M576.035 69.9917V20.5828H586.17V69.9917H576.035Z" fill="#FFD38C"/>
<path d="M636.647 30.6037H623.299V69.9917H613.164V30.6037H599.754V20.5828H636.647V30.6037Z" fill="#FFD38C"/>
<path d="M669.097 70.4092C665.595 70.4092 662.608 69.7597 660.136 68.4607C657.664 67.1153 655.645 65.306 654.08 63.0327C652.556 60.713 651.423 58.0918 650.681 55.169C649.981 52.1999 649.63 49.0915 649.63 45.844V20.5828H659.765V45.844C659.765 48.3492 660.054 50.6921 660.63 52.8726C661.248 55.053 662.237 56.8392 663.597 58.231C664.956 59.5764 666.79 60.2491 669.097 60.2491C671.445 60.2491 673.299 59.5532 674.659 58.1614C676.018 56.7696 676.986 54.9835 677.563 52.803C678.14 50.6225 678.428 48.3028 678.428 45.844V20.5828H688.563V45.844C688.563 50.3905 687.883 54.5195 686.524 58.231C685.164 61.9425 683.043 64.9116 680.159 67.1385C677.316 69.319 673.629 70.4092 669.097 70.4092Z" fill="#FFD38C"/>
<path d="M705.068 69.9917V20.5828H721.444C726.264 20.5828 730.281 21.6962 733.495 23.9231C736.75 26.1036 739.201 29.0728 740.849 32.8306C742.497 36.5421 743.321 40.6711 743.321 45.2177C743.321 50.2281 742.414 54.5891 740.602 58.3006C738.789 62.0121 736.235 64.8884 732.939 66.9297C729.684 68.9711 725.852 69.9917 721.444 69.9917H705.068ZM733 45.2177C733 40.8567 731.991 37.3308 729.972 34.64C727.954 31.9491 725.111 30.6037 721.444 30.6037H715.203V59.9707H721.444C723.916 59.9707 726.017 59.3444 727.748 58.0918C729.478 56.7928 730.776 55.0298 731.641 52.803C732.547 50.5761 733 48.0476 733 45.2177Z" fill="#FFD38C"/>
<path d="M788.793 59.9707V69.9917H757.956V20.5828H788.237V30.6037H768.091V40.2072H785.394V49.4626H768.091V59.9707H788.793Z" fill="#FFD38C"/>
<path fill-rule="evenodd" clip-rule="evenodd" d="M437.183 12C435.484 12 434.106 13.6391 434.106 15.6611V19.3672C432.661 19.583 431.254 19.949 429.899 20.4514C429.593 19.4728 429.179 18.55 428.646 17.7198C427.25 15.542 425.14 14.182 422.567 14.182C421.116 14.182 419.94 15.5818 419.94 17.3086C419.94 19.0354 421.116 20.4352 422.567 20.4352C423.454 20.4352 424.037 20.8401 424.468 21.5126C424.703 21.88 424.912 22.3643 425.065 22.9558C417.691 27.969 412.721 37.4163 412.721 48.2448C412.721 59.0922 417.708 68.5536 425.103 73.56C424.949 74.2231 424.724 74.7607 424.468 75.1601C424.037 75.8325 423.454 76.2375 422.567 76.2375C421.116 76.2375 419.94 77.6373 419.94 79.3641C419.94 81.0909 421.116 82.4907 422.567 82.4907C425.14 82.4907 427.25 81.1307 428.646 78.9529C429.208 78.0764 429.639 77.0965 429.949 76.0568C431.289 76.5497 432.678 76.9093 434.106 77.1225V80.8285C434.106 82.8505 435.484 84.4896 437.183 84.4896C438.882 84.4896 440.26 82.8505 440.26 80.8285V77.1225C441.688 76.9093 443.077 76.5497 444.417 76.0568C444.727 77.0965 445.158 78.0764 445.72 78.9529C447.116 81.1307 449.226 82.4907 451.799 82.4907C453.25 82.4907 454.426 81.0909 454.426 79.3641C454.426 77.6373 453.25 76.2375 451.799 76.2375C450.912 76.2375 450.329 75.8325 449.898 75.1601C449.642 74.7607 449.417 74.2231 449.263 73.56C456.658 68.5536 461.645 59.0922 461.645 48.2448C461.645 37.4163 456.675 27.969 449.301 22.9558C449.454 22.3644 449.663 21.88 449.898 21.5126C450.329 20.8401 450.912 20.4352 451.799 20.4352C453.25 20.4352 454.426 19.0354 454.426 17.3086C454.426 15.5818 453.25 14.182 451.799 14.182C449.226 14.182 447.116 15.542 445.72 17.7198C445.187 18.55 444.773 19.4728 444.467 20.4514C443.112 19.949 441.705 19.583 440.26 19.3672V15.6611C440.26 13.6391 438.882 12 437.183 12ZM434.106 26.7676C425.46 28.5086 418.875 37.4618 418.875 48.2448C418.875 59.0279 425.46 67.981 434.106 69.722V26.7676ZM440.26 26.7676C448.906 28.5086 455.491 37.4618 455.491 48.2448C455.491 59.0279 448.906 67.981 440.26 69.722V26.7676Z" fill="#FFD38C"/>
</g>
<defs>
<linearGradient id="paint0_linear_1267_3963" x1="350.189" y1="47.9941" x2="238.819" y2="74.6027" gradientUnits="userSpaceOnUse">
<stop offset="0.0677083" stop-color="#576265"/>
<stop offset="0.21875" stop-color="#BEBEBE"/>
<stop offset="0.401042" stop-color="#848B8A"/>
<stop offset="0.578125" stop-color="#576265"/>
<stop offset="0.796875" stop-color="#787878"/>
<stop offset="0.895833" stop-color="#525252"/>
<stop offset="1" stop-color="#576265"/>
</linearGradient>
<radialGradient id="paint1_radial_1267_3963" cx="0" cy="0" r="1" gradientUnits="userSpaceOnUse" gradientTransform="translate(241.45 -20.7201) rotate(63.3132) scale(104.654 102.825)">
<stop stop-color="white"/>
<stop offset="1" stop-color="white" stop-opacity="0"/>
</radialGradient>
<linearGradient id="paint2_linear_1267_3963" x1="217.378" y1="46.6564" x2="66.4495" y2="159.605" gradientUnits="userSpaceOnUse">
<stop offset="0.0677083" stop-color="#576265"/>
<stop offset="0.21875" stop-color="#BEBEBE"/>
<stop offset="0.401042" stop-color="#848B8A"/>
<stop offset="0.578125" stop-color="#576265"/>
<stop offset="0.796875" stop-color="#787878"/>
<stop offset="0.895833" stop-color="#525252"/>
<stop offset="1" stop-color="#576265"/>
</linearGradient>
<radialGradient id="paint3_radial_1267_3963" cx="0" cy="0" r="1" gradientUnits="userSpaceOnUse" gradientTransform="translate(-0.0998587 2.78144) rotate(32.4212) scale(111.361 123.402)">
<stop stop-color="white"/>
<stop offset="1" stop-color="white" stop-opacity="0"/>
</radialGradient>
<linearGradient id="paint4_linear_1267_3963" x1="217.378" y1="46.6564" x2="66.4495" y2="159.605" gradientUnits="userSpaceOnUse">
<stop offset="0.0677083" stop-color="#576265"/>
<stop offset="0.21875" stop-color="#BEBEBE"/>
<stop offset="0.401042" stop-color="#848B8A"/>
<stop offset="0.578125" stop-color="#576265"/>
<stop offset="0.796875" stop-color="#787878"/>
<stop offset="0.895833" stop-color="#525252"/>
<stop offset="1" stop-color="#576265"/>
</linearGradient>
<radialGradient id="paint5_radial_1267_3963" cx="0" cy="0" r="1" gradientUnits="userSpaceOnUse" gradientTransform="translate(-0.0998587 2.78144) rotate(32.4212) scale(111.361 123.402)">
<stop stop-color="white"/>
<stop offset="1" stop-color="white" stop-opacity="0"/>
</radialGradient>
<linearGradient id="paint6_linear_1267_3963" x1="217.378" y1="46.6564" x2="66.4495" y2="159.605" gradientUnits="userSpaceOnUse">
<stop offset="0.0677083" stop-color="#576265"/>
<stop offset="0.21875" stop-color="#BEBEBE"/>
<stop offset="0.401042" stop-color="#848B8A"/>
<stop offset="0.578125" stop-color="#576265"/>
<stop offset="0.796875" stop-color="#787878"/>
<stop offset="0.895833" stop-color="#525252"/>
<stop offset="1" stop-color="#576265"/>
</linearGradient>
<radialGradient id="paint7_radial_1267_3963" cx="0" cy="0" r="1" gradientUnits="userSpaceOnUse" gradientTransform="translate(-0.0998587 2.78144) rotate(32.4212) scale(111.361 123.402)">
<stop stop-color="white"/>
<stop offset="1" stop-color="white" stop-opacity="0"/>
</radialGradient>
<linearGradient id="paint8_linear_1267_3963" x1="217.378" y1="46.6564" x2="66.4495" y2="159.605" gradientUnits="userSpaceOnUse">
<stop offset="0.0677083" stop-color="#576265"/>
<stop offset="0.21875" stop-color="#BEBEBE"/>
<stop offset="0.401042" stop-color="#848B8A"/>
<stop offset="0.578125" stop-color="#576265"/>
<stop offset="0.796875" stop-color="#787878"/>
<stop offset="0.895833" stop-color="#525252"/>
<stop offset="1" stop-color="#576265"/>
</linearGradient>
<radialGradient id="paint9_radial_1267_3963" cx="0" cy="0" r="1" gradientUnits="userSpaceOnUse" gradientTransform="translate(-0.0998587 2.78144) rotate(32.4212) scale(111.361 123.402)">
<stop stop-color="white"/>
<stop offset="1" stop-color="white" stop-opacity="0"/>
</radialGradient>
<linearGradient id="paint10_linear_1267_3963" x1="814.401" y1="48.2448" x2="609.075" y2="287.245" gradientUnits="userSpaceOnUse">
<stop offset="0.0677083" stop-color="#576265"/>
<stop offset="0.21875" stop-color="#BEBEBE"/>
<stop offset="0.401042" stop-color="#848B8A"/>
<stop offset="0.578125" stop-color="#576265"/>
<stop offset="0.796875" stop-color="#787878"/>
<stop offset="0.895833" stop-color="#525252"/>
<stop offset="1" stop-color="#576265"/>
</linearGradient>
<radialGradient id="paint11_radial_1267_3963" cx="0" cy="0" r="1" gradientUnits="userSpaceOnUse" gradientTransform="translate(367.795 -9.68255) rotate(22.2123) scale(208.515 178.687)">
<stop stop-color="white"/>
<stop offset="1" stop-color="white" stop-opacity="0"/>
</radialGradient>
<linearGradient id="paint12_linear_1267_3963" x1="814.401" y1="48.2448" x2="609.075" y2="287.245" gradientUnits="userSpaceOnUse">
<stop offset="0.0677083" stop-color="#576265"/>
<stop offset="0.21875" stop-color="#BEBEBE"/>
<stop offset="0.401042" stop-color="#848B8A"/>
<stop offset="0.578125" stop-color="#576265"/>
<stop offset="0.796875" stop-color="#787878"/>
<stop offset="0.895833" stop-color="#525252"/>
<stop offset="1" stop-color="#576265"/>
</linearGradient>
<radialGradient id="paint13_radial_1267_3963" cx="0" cy="0" r="1" gradientUnits="userSpaceOnUse" gradientTransform="translate(367.795 -9.68255) rotate(22.2123) scale(208.515 178.687)">
<stop stop-color="white"/>
<stop offset="1" stop-color="white" stop-opacity="0"/>
</radialGradient>
<linearGradient id="paint14_linear_1267_3963" x1="814.401" y1="48.2448" x2="609.075" y2="287.245" gradientUnits="userSpaceOnUse">
<stop offset="0.0677083" stop-color="#576265"/>
<stop offset="0.21875" stop-color="#BEBEBE"/>
<stop offset="0.401042" stop-color="#848B8A"/>
<stop offset="0.578125" stop-color="#576265"/>
<stop offset="0.796875" stop-color="#787878"/>
<stop offset="0.895833" stop-color="#525252"/>
<stop offset="1" stop-color="#576265"/>
</linearGradient>
<radialGradient id="paint15_radial_1267_3963" cx="0" cy="0" r="1" gradientUnits="userSpaceOnUse" gradientTransform="translate(367.795 -9.68255) rotate(22.2123) scale(208.515 178.687)">
<stop stop-color="white"/>
<stop offset="1" stop-color="white" stop-opacity="0"/>
</radialGradient>
<linearGradient id="paint16_linear_1267_3963" x1="814.401" y1="48.2448" x2="609.075" y2="287.245" gradientUnits="userSpaceOnUse">
<stop offset="0.0677083" stop-color="#576265"/>
<stop offset="0.21875" stop-color="#BEBEBE"/>
<stop offset="0.401042" stop-color="#848B8A"/>
<stop offset="0.578125" stop-color="#576265"/>
<stop offset="0.796875" stop-color="#787878"/>
<stop offset="0.895833" stop-color="#525252"/>
<stop offset="1" stop-color="#576265"/>
</linearGradient>
<radialGradient id="paint17_radial_1267_3963" cx="0" cy="0" r="1" gradientUnits="userSpaceOnUse" gradientTransform="translate(367.795 -9.68255) rotate(22.2123) scale(208.515 178.687)">
<stop stop-color="white"/>
<stop offset="1" stop-color="white" stop-opacity="0"/>
</radialGradient>
<linearGradient id="paint18_linear_1267_3963" x1="814.401" y1="48.2448" x2="609.075" y2="287.245" gradientUnits="userSpaceOnUse">
<stop offset="0.0677083" stop-color="#576265"/>
<stop offset="0.21875" stop-color="#BEBEBE"/>
<stop offset="0.401042" stop-color="#848B8A"/>
<stop offset="0.578125" stop-color="#576265"/>
<stop offset="0.796875" stop-color="#787878"/>
<stop offset="0.895833" stop-color="#525252"/>
<stop offset="1" stop-color="#576265"/>
</linearGradient>
<radialGradient id="paint19_radial_1267_3963" cx="0" cy="0" r="1" gradientUnits="userSpaceOnUse" gradientTransform="translate(367.795 -9.68255) rotate(22.2123) scale(208.515 178.687)">
<stop stop-color="white"/>
<stop offset="1" stop-color="white" stop-opacity="0"/>
</radialGradient>
<linearGradient id="paint20_linear_1267_3963" x1="814.401" y1="48.2448" x2="609.075" y2="287.245" gradientUnits="userSpaceOnUse">
<stop offset="0.0677083" stop-color="#576265"/>
<stop offset="0.21875" stop-color="#BEBEBE"/>
<stop offset="0.401042" stop-color="#848B8A"/>
<stop offset="0.578125" stop-color="#576265"/>
<stop offset="0.796875" stop-color="#787878"/>
<stop offset="0.895833" stop-color="#525252"/>
<stop offset="1" stop-color="#576265"/>
</linearGradient>
<radialGradient id="paint21_radial_1267_3963" cx="0" cy="0" r="1" gradientUnits="userSpaceOnUse" gradientTransform="translate(367.795 -9.68255) rotate(22.2123) scale(208.515 178.687)">
<stop stop-color="white"/>
<stop offset="1" stop-color="white" stop-opacity="0"/>
</radialGradient>
<linearGradient id="paint22_linear_1267_3963" x1="814.401" y1="48.2448" x2="609.075" y2="287.245" gradientUnits="userSpaceOnUse">
<stop offset="0.0677083" stop-color="#576265"/>
<stop offset="0.21875" stop-color="#BEBEBE"/>
<stop offset="0.401042" stop-color="#848B8A"/>
<stop offset="0.578125" stop-color="#576265"/>
<stop offset="0.796875" stop-color="#787878"/>
<stop offset="0.895833" stop-color="#525252"/>
<stop offset="1" stop-color="#576265"/>
</linearGradient>
<radialGradient id="paint23_radial_1267_3963" cx="0" cy="0" r="1" gradientUnits="userSpaceOnUse" gradientTransform="translate(367.795 -9.68255) rotate(22.2123) scale(208.515 178.687)">
<stop stop-color="white"/>
<stop offset="1" stop-color="white" stop-opacity="0"/>
</radialGradient>
<linearGradient id="paint24_linear_1267_3963" x1="814.401" y1="48.2448" x2="609.075" y2="287.245" gradientUnits="userSpaceOnUse">
<stop offset="0.0677083" stop-color="#576265"/>
<stop offset="0.21875" stop-color="#BEBEBE"/>
<stop offset="0.401042" stop-color="#848B8A"/>
<stop offset="0.578125" stop-color="#576265"/>
<stop offset="0.796875" stop-color="#787878"/>
<stop offset="0.895833" stop-color="#525252"/>
<stop offset="1" stop-color="#576265"/>
</linearGradient>
<radialGradient id="paint25_radial_1267_3963" cx="0" cy="0" r="1" gradientUnits="userSpaceOnUse" gradientTransform="translate(367.795 -9.68255) rotate(22.2123) scale(208.515 178.687)">
<stop stop-color="white"/>
<stop offset="1" stop-color="white" stop-opacity="0"/>
</radialGradient>
<linearGradient id="paint26_linear_1267_3963" x1="814.401" y1="48.2448" x2="609.075" y2="287.245" gradientUnits="userSpaceOnUse">
<stop offset="0.0677083" stop-color="#576265"/>
<stop offset="0.21875" stop-color="#BEBEBE"/>
<stop offset="0.401042" stop-color="#848B8A"/>
<stop offset="0.578125" stop-color="#576265"/>
<stop offset="0.796875" stop-color="#787878"/>
<stop offset="0.895833" stop-color="#525252"/>
<stop offset="1" stop-color="#576265"/>
</linearGradient>
<radialGradient id="paint27_radial_1267_3963" cx="0" cy="0" r="1" gradientUnits="userSpaceOnUse" gradientTransform="translate(367.795 -9.68255) rotate(22.2123) scale(208.515 178.687)">
<stop stop-color="white"/>
<stop offset="1" stop-color="white" stop-opacity="0"/>
</radialGradient>
</defs>
</svg>
