<svg data-name="Layer 1" xmlns="http://www.w3.org/2000/svg" width="1098.6" height="242.09"><path fill="#fff" d="M293.4 162.1V79.99l104.77-60.55 37.39 21.58-33.67 19.5 33.72 19.47v82.11l-37.38 21.59v-82.11l-33.72-19.47-33.73 19.47v38.93l34.95 20.3v43.04L293.4 162.1z"/><path d="M21.53 135.1a13 13 0 002 6 5.12 5.12 0 004.4 2.07 16.79 16.79 0 006.47-1.44 20.89 20.89 0 005.07-2.78l4.47 10.35a31.94 31.94 0 01-10.14 7.88 26.7 26.7 0 01-12.13 3.12q-8.86 0-13.64-4.29a20.74 20.74 0 01-6.37-10.84 64.06 64.06 0 01-1.59-15.05L0 54.52h21v70a84 84 0 00.53 10.58zm47.12 5.14q4.28 3.33 12.2 3.33 3.25 0 6.14-.29a72.73 72.73 0 0012.87-2.89q6.81-2.15 11.1-3.85l3.17 12.76a34.17 34.17 0 01-7.81 4.7 73.57 73.57 0 01-12.72 4.55 56 56 0 01-14.47 1.96q-13.32 0-21.27-4.44a25.39 25.39 0 01-11.46-13.42q-3.53-9-3.52-23.27 0-13.17 3.55-21.56a24.56 24.56 0 0111.58-12.58q8-4.17 21.42-4.18 15.15 0 24.18 6.7t9.77 21c.1 1.14.15 2.79.15 5 0 2.66-.1 5.13-.3 7.39s-.34 3.7-.44 4.29l-48.38 2.82q-.05 8.65 4.24 11.98zm24.41-31q0-11.83-13.91-11.84-6.89 0-10.58 3.7t-4.22 11.24l28.63-1.1a19.39 19.39 0 00.08-1.94zm51.3 15.39a83.86 83.86 0 00.52 10.54 13.29 13.29 0 002 6 5 5 0 004.36 2.08 17 17 0 006.59-1.48 20.4 20.4 0 005-2.82l4.43 10.44a32.05 32.05 0 01-10.09 8 26.09 26.09 0 01-12.1 3.11q-12.06 0-16.86-7.77t-4.81-19.75v-2l-.08-32.48h-8.13V82.84h8.13v-17.9l21-4.86v22.76h15.83l-2 15.68h-13.86l.07 25.52zm40.1 16.43a55.48 55.48 0 0014.61 2.36q6.29 0 9.69-1.59a5.49 5.49 0 003.4-5.36 5 5 0 00-2.33-4.17 19.49 19.49 0 00-5.77-2.78c-2.29-.71-5.43-1.54-9.43-2.47l-3.11-.74q-9.39-2.44-14.57-8.36a21 21 0 01-5.18-14.28 26.43 26.43 0 01.37-4.66 18.27 18.27 0 0110.32-13.65q8.63-4.32 21.49-4.33a54.35 54.35 0 0126 6.37l-2.08 16.12a44.77 44.77 0 00-7.65-2.7c-3.18-.86-6.43-1.59-9.73-2.18a71.33 71.33 0 00-7.84-.52q-10.22 0-10.21 5.25a6 6 0 003.4 5.48q3.4 1.92 10.58 3.25 12.66 2.59 20.05 8.73a19.28 19.28 0 017.4 15.46q0 8.8-4.55 14.2a24.89 24.89 0 01-11.73 7.7 51.22 51.22 0 01-15.68 2.29 65.3 65.3 0 01-7.62-.44q-14.56-1.64-24.63-7.77l1.85-16.72q4.47 3.14 12.95 5.51zm497.98 2.24a5.13 5.13 0 01-4.4-2.08 13.15 13.15 0 01-2-6 86.15 86.15 0 01-.51-10.54V83.95l-20.94-2v6.44a30.11 30.11 0 00-8.36-5.14 25.16 25.16 0 00-10.13-2.26q-15.9 0-22.75 10.58t-6.88 28.73q0 15.75 5.59 28t21.19 12.27c1.18 0 2.07 0 2.66-.07a23 23 0 0012.1-3.81 31.47 31.47 0 008.84-9.13q4.65 12.94 19.3 12.94a26.27 26.27 0 0012.13-3.11 34.17 34.17 0 004.38-2.69l-4.89-12.4a16 16 0 01-5.33 1zm-27.89-9.32a20.43 20.43 0 01-6.14 6.36 14 14 0 01-7.91 2.58l-1-.07q-6-.66-9-6.73a34.26 34.26 0 01-3.14-14.65 45.19 45.19 0 011.22-10.2 22.3 22.3 0 014.33-9.1 10.25 10.25 0 018.43-3.85q7.47 0 13.24 6.14zm-128.12-9.35a83.86 83.86 0 00.52 10.54 13.41 13.41 0 002 6 5 5 0 004.37 2.08 17 17 0 006.58-1.48 20 20 0 005-2.82l4.44 10.44a32.09 32.09 0 01-10.1 8 26.08 26.08 0 01-12.11 3.12q-12.06 0-16.87-7.77t-4.81-19.75v-2l-.07-32.48h-8.14V82.84h8.14v-17.9l21-4.86v22.76h15.83l-2 15.68h-13.86l.08 25.52zm73.04-27.18a24 24 0 00-5.92-.63 19.39 19.39 0 00-8.88 2.22 20.42 20.42 0 00-7.14 5.88 12.66 12.66 0 00-2.77 7.73v46H553.9V83.88l20.86-2v10.95a26.51 26.51 0 0122.64-11.84 23 23 0 016.54.89 17 17 0 013.89 1.48l-2.81 15.94a53.3 53.3 0 00-5.55-1.85zm238.77-13.5l20.89-2.07v9.42a19.6 19.6 0 013.78-4.1 27 27 0 017-4.29 22.34 22.34 0 019.25-1.89q16.86 0 22.52 12t5.66 28.34q0 18-6.88 28.62t-22.71 10.58a32.49 32.49 0 01-10.28-1.66 26.54 26.54 0 01-8.29-4.26v32.55l-20.86-1.33zm23 56.85a36.06 36.06 0 005.07 1.7 24 24 0 006.14.78 10.33 10.33 0 008.43-3.78 21.32 21.32 0 004.29-9 47.93 47.93 0 001.18-10.58 34.77 34.77 0 00-1.7-11.47 17.61 17.61 0 00-4.58-7.47 9.37 9.37 0 00-6.36-2.59 14.23 14.23 0 00-9.28 2.91 24.33 24.33 0 00-5.33 5.7v32.8a16.48 16.48 0 002.11 1zm103.44-57.5q7.58 2.32 13.13 10.43t5.54 24v6.14q0 14.73-4.92 22.79a25 25 0 01-12.68 11 51.58 51.58 0 01-18 2.88 57.49 57.49 0 01-16.9-2.33q-7.59-2.32-13.13-10.43t-5.55-24v-6.07q0-14.72 4.92-22.82t12.69-11a51.32 51.32 0 0118-2.89 57.56 57.56 0 0116.9 2.3zm-28.45 53.82q3.26 6.14 11.54 6.14 8.8 0 11.8-6.29t3-16.2q0-10.29-3.26-16.39t-11.54-6.1q-8.81 0-11.8 6.25t-3 16.16q.01 10.31 3.26 16.45zm98.03-39.67a24 24 0 00-5.92-.63 19.38 19.38 0 00-8.87 2.22 20.42 20.42 0 00-7.14 5.88 12.59 12.59 0 00-2.77 7.73v46H988.7V83.88l20.86-2v10.95a26.51 26.51 0 0122.63-11.84 23.05 23.05 0 016.55.89 16.65 16.65 0 013.88 1.48l-2.81 15.9a52.54 52.54 0 00-5.55-1.81zm41.41 27.18a83.86 83.86 0 00.52 10.54 13.29 13.29 0 002 6 5 5 0 004.36 2.08 17 17 0 006.59-1.48 20.4 20.4 0 005-2.82l4.43 10.44a32.05 32.05 0 01-10.09 8 26.09 26.09 0 01-12.1 3.11q-12.06 0-16.86-7.77t-4.81-19.75v-2l-.08-32.48h-8.13V82.84h8.13v-17.9l21-4.86v22.76h15.83l-2 15.68h-13.91l.07 25.52zm-313.21 35.88q-12.06 0-16.54-7.66t-4.47-19.86v-15.31q0-10-2.74-14.72t-9.58-4.73a15.77 15.77 0 00-6.84 1.48 22.92 22.92 0 00-5.22 3.25 10.21 10.21 0 00-2.07 2v53.7h-20.82V83.95l20.86-2v9.25c0-.35 1.13-1.39 3.4-3.15a41.49 41.49 0 018.36-4.84 25.21 25.21 0 0110.43-2.22q13.47 0 19.31 7.88t5.84 23.19v25.07a81.93 81.93 0 00.59 10.06 10.2 10.2 0 002 5.21zm20.4-19.45a55.48 55.48 0 0014.61 2.36q6.28 0 9.69-1.59a5.49 5.49 0 003.4-5.36 5 5 0 00-2.33-4.17 19.49 19.49 0 00-5.77-2.78c-2.29-.71-5.43-1.54-9.43-2.47l-3.11-.74q-9.39-2.44-14.57-8.36a21 21 0 01-5.22-14.25 26.43 26.43 0 01.37-4.66 18.27 18.27 0 0110.32-13.65q8.63-4.32 21.49-4.33a54.35 54.35 0 0126 6.37l-2.08 16.12a44.77 44.77 0 00-7.65-2.7c-3.18-.86-6.43-1.59-9.73-2.18a71.33 71.33 0 00-7.84-.52q-10.21 0-10.21 5.25a6 6 0 003.4 5.48q3.4 1.92 10.58 3.25 12.66 2.59 20.05 8.73a19.28 19.28 0 017.4 15.46q0 8.8-4.55 14.2a24.89 24.89 0 01-11.73 7.7 51.22 51.22 0 01-15.68 2.29 65.3 65.3 0 01-7.62-.44q-14.52-1.63-24.62-7.77l1.85-16.72q4.5 3.11 12.98 5.48z" fill="#101820"/><path fill="#ff671f" d="M399.45 20.17L364.51 0l-37.12 21.43-28.13 16.24-39.58 22.85v10.09l34.94 20.17V80.7l104.83-60.53z"/><path fill="#e04e39" d="M364.51 201.74l-69.89-40.35V80.7l-34.94-20.18v121.05l104.83 60.52 6.9-4.08v-40.34l-6.9 4.07z"/><path fill="#ff671f" d="M364.51 80.7l-34.95 20.17v8.27l34.95 20.17 34.94-20.17v-8.27L364.51 80.7zm69.88-40.35l-34.94 20.17 34.94 20.18v8.26l34.94-20.17v-8.27l-34.94-20.17z"/><path fill="#e04e39" d="M364.51 121.05l-34.95-20.18v40.35l34.95 20.29 7.18-4.22v-40.4l-7.18 4.16z"/><path fill="#a72b2a" d="M364.51 121.05v121.04l104.82-60.52V60.52L434.39 80.7v80.69l-34.94 20.18v-80.7l-34.94 20.18z"/></svg>